<svg id="Capa_1" enable-background="new 0 0 512 512" height="512" viewBox="0 0 512 512" width="512" xmlns="http://www.w3.org/2000/svg"><g><path d="m75 299.773c-24.814 0-45-20.186-45-45 0-8.276 6.724-15 15-15h45l-30-30h-15c-24.814 0-45 20.186-45 45 0 41.353 33.647 75 75 75 8.291 0 15-6.709 15-15s-6.709-15-15-15z" fill="#596c76"/><path d="m467 209.773h-15l-30 30h45c8.276 0 15 6.724 15 15 0 24.814-20.186 45-45 45-8.291 0-15 6.709-15 15s6.709 15 15 15c41.353 0 75-33.647 75-75 0-24.815-20.186-45-45-45z" fill="#465a61"/><path d="m316 179.773c-8.291 0-15-6.709-15-15s6.709-15 15-15c6.064-.044 17.051-2.051 21.211-6.211 4.395-4.395 6.211-15.981 6.211-21.211 0-2.813.425-27.847 14.985-42.437 14.59-14.575 39.639-15 42.451-15 8.291 0 15 6.709 15 15 0 8.276-6.694 14.985-14.971 15-6.138.059-17.109 2.065-21.255 6.211-4.38 4.395-6.211 15.996-6.211 21.226 0 2.813-.425 27.847-15 42.422s-39.608 15-42.421 15z" fill="#ffe6b3"/><path d="m406 179.773c-8.291 0-15-6.709-15-15s6.709-15 15-15c6.064-.044 17.051-2.051 21.211-6.211 4.395-4.395 6.211-15.981 6.211-21.211 0-2.813.425-27.847 14.985-42.437 14.59-14.575 39.639-15 42.451-15 8.291 0 15 6.709 15 15 0 8.276-6.694 14.985-14.971 15-6.138.059-17.109 2.065-21.255 6.211-4.38 4.395-6.211 15.996-6.211 21.226 0 2.813-.425 27.847-15 42.422s-39.608 15-42.421 15z" fill="#ffe6b3"/><path d="m256 209.773h-196v227c0 41.353 33.647 75 75 75h121 121c41.353 0 75-33.647 75-75v-227z" fill="#dfe7f4"/><path d="m452 436.773v-227h-196v302h121c41.353 0 75-33.648 75-75z" fill="#c7cfe1"/><g><path d="m287.065 50.957c-6.552-14.362-18.132-24.745-31.64-30.356-14.872-6.177-32.096-6.537-47.859.71-30.146 13.753-43.414 49.306-29.646 79.513l6.244 13.641 71.081-32.486 38.064-17.396z" fill="#596c76"/><path d="m255.425 20.601c-14.872-6.177-32.096-6.537-47.859.71-.015.007-.029.015-.045.022l31.104 68.243 16.62-7.596 38.064-17.396-6.244-13.627c-6.552-14.362-18.132-24.745-31.64-30.356z" fill="#465a61"/><path d="m416.094 9.054c-3.435-7.539-12.346-10.876-19.871-7.412l-140.929 63.828-186.519 85.207c-7.539 3.435-10.861 12.332-7.412 19.871 3.466 7.615 12.456 10.823 19.871 7.412l173.963-79.471 153.485-69.562c7.54-3.437 10.862-12.348 7.412-19.873z" fill="#dfe7f4"/><path d="m396.323 1.597-140.929 63.828-22.989 10.502 12.439 27.291 10.454-4.776 153.485-69.562c7.539-3.435 10.861-12.346 7.412-19.871-3.436-7.539-12.347-10.876-19.872-7.412z" fill="#c7cfe1"/></g></g></svg>