<svg id="Filled" height="512" viewBox="0 0 512 512" width="512" xmlns="http://www.w3.org/2000/svg"><path d="m24 24h464v464h-464z" fill="#fae8d8"/><path d="m408 32h-304a8 8 0 0 1 0-16h304a8 8 0 0 1 0 16z"/><path d="m488 416a8 8 0 0 1 -8-8v-304a8 8 0 0 1 16 0v304a8 8 0 0 1 -8 8z"/><path d="m24 416a8 8 0 0 1 -8-8v-304a8 8 0 0 1 16 0v304a8 8 0 0 1 -8 8z"/><path d="m408 496h-304a8 8 0 0 1 0-16h304a8 8 0 0 1 0 16z"/><path d="m24 80a8 8 0 0 0 8-8v-40h40a8 8 0 0 0 0-16h-48a8 8 0 0 0 -8 8v48a8 8 0 0 0 8 8z"/><path d="m488 16h-48a8 8 0 0 0 0 16h40v40a8 8 0 0 0 16 0v-48a8 8 0 0 0 -8-8z"/><path d="m72 480h-40v-40a8 8 0 0 0 -16 0v48a8 8 0 0 0 8 8h48a8 8 0 0 0 0-16z"/><path d="m488 432a8 8 0 0 0 -8 8v40h-40a8 8 0 0 0 0 16h48a8 8 0 0 0 8-8v-48a8 8 0 0 0 -8-8z"/><path d="m160 152v-96a8 8 0 0 0 -8-8h-96a8 8 0 0 0 -8 8v96a8 8 0 0 0 8 8h96a8 8 0 0 0 8-8zm-16-8h-80v-80h80z"/><path d="m88 128h32a8 8 0 0 0 8-8v-32a8 8 0 0 0 -8-8h-32a8 8 0 0 0 -8 8v32a8 8 0 0 0 8 8zm8-32h16v16h-16z"/><path d="m464 56a8 8 0 0 0 -8-8h-96a8 8 0 0 0 -8 8v96a8 8 0 0 0 8 8h96a8 8 0 0 0 8-8zm-16 88h-80v-80h80z"/><path d="m392 128h32a8 8 0 0 0 8-8v-32a8 8 0 0 0 -8-8h-32a8 8 0 0 0 -8 8v32a8 8 0 0 0 8 8zm8-32h16v16h-16z"/><path d="m152 352h-96a8 8 0 0 0 -8 8v96a8 8 0 0 0 8 8h96a8 8 0 0 0 8-8v-96a8 8 0 0 0 -8-8zm-8 96h-80v-80h80z"/><path d="m88 432h32a8 8 0 0 0 8-8v-32a8 8 0 0 0 -8-8h-32a8 8 0 0 0 -8 8v32a8 8 0 0 0 8 8zm8-32h16v16h-16z"/><path d="m216 88a8 8 0 0 0 8-8v-24a8 8 0 0 0 -8-8h-32a8 8 0 0 0 0 16h24v16a8 8 0 0 0 8 8z"/><path d="m208 152h40a8 8 0 0 0 0-16h-32v-24a8 8 0 0 0 -8-8h-16v-16a8 8 0 0 0 -16 0v24a8 8 0 0 0 8 8h16v24a8 8 0 0 0 8 8z"/><path d="m264 48h-16a8 8 0 0 0 0 16h16a8 8 0 0 0 0-16z"/><path d="m320 48h-24a8 8 0 0 0 -8 8v24h-24a8 8 0 0 0 0 16h32a8 8 0 0 0 8-8v-24h16a8 8 0 0 0 0-16z"/><path d="m280 112a8 8 0 0 0 -8 8v24a8 8 0 0 0 16 0v-24a8 8 0 0 0 -8-8z"/><path d="m320 88v24h-8a8 8 0 0 0 0 16h16a8 8 0 0 0 8-8v-32a8 8 0 0 0 -16 0z"/><path d="m232 112a8 8 0 0 0 8 8h8a8 8 0 0 0 0-16h-8a8 8 0 0 0 -8 8z"/><path d="m440 400a8 8 0 0 0 0-16h-32v-16h16a8 8 0 0 0 8-8v-48a8 8 0 0 0 -16 0v40h-72v-64a8 8 0 0 0 -8-8h-24v-8a8 8 0 0 0 -8-8h-40v-40a8 8 0 0 0 -16 0v8h-16v-40a8 8 0 0 0 -16 0v48a8 8 0 0 0 8 8h24v24a8 8 0 0 0 8 8h40v8a8 8 0 0 0 8 8h24v16h-16a8 8 0 0 0 0 16h16v120a8 8 0 0 0 16 0v-16h16v16a8 8 0 0 0 16 0v-16h16v24a8 8 0 0 0 16 0v-56zm-96-32h48v48h-48z"/><path d="m216 448v-24a8 8 0 0 0 -8-8h-8v-32h48a8 8 0 0 0 8-8v-32a8 8 0 0 0 -8-8h-8v-24a8 8 0 0 0 -8-8h-16v-32a8 8 0 0 0 -16 0v32h-16a8 8 0 0 0 -8 8v32a8 8 0 0 0 16 0v-24h32v16h-8a8 8 0 0 0 -8 8v24h-16a8 8 0 0 0 -8 8v40a8 8 0 0 0 0 16h16v16h-16a8 8 0 0 0 0 16h32a8 8 0 0 0 0-16zm8-96h16v16h-16z"/><path d="m304 400h-32a8 8 0 0 0 -8 8v40h-16a8 8 0 0 0 0 16h40a8 8 0 0 0 0-16h-8v-32h16v8a8 8 0 0 0 16 0v-16a8 8 0 0 0 -8-8z"/><path d="m248 424v-16a8 8 0 0 0 -16 0v16a8 8 0 0 0 16 0z"/><path d="m304 352h-24a8 8 0 0 0 0 16h24a8 8 0 0 0 0-16z"/><path d="m280 336a8 8 0 0 0 8-8v-24a8 8 0 0 0 -8-8h-24a8 8 0 0 0 0 16h16v16a8 8 0 0 0 8 8z"/><path d="m464 280a8 8 0 0 0 -16 0v24a8 8 0 0 0 16 0z"/><path d="m456 328a8 8 0 0 0 -8 8v32a8 8 0 0 0 16 0v-32a8 8 0 0 0 -8-8z"/><path d="m368 336h24a8 8 0 0 0 0-16h-16v-16a8 8 0 0 0 -16 0v24a8 8 0 0 0 8 8z"/><path d="m120 216a8 8 0 0 0 -8-8h-16v-24a8 8 0 0 0 -8-8h-32a8 8 0 0 0 0 16h24v24a8 8 0 0 0 8 8h24a8 8 0 0 0 8-8z"/><path d="m136 192h40a8 8 0 0 0 8-8v-40a8 8 0 0 0 -16 0v32h-32a8 8 0 0 0 0 16z"/><path d="m48 232v32a8 8 0 0 0 16 0v-32a8 8 0 0 0 -16 0z"/><path d="m88 240a8 8 0 0 0 0 16h16a8 8 0 0 0 0-16z"/><path d="m184 272v-16h8a8 8 0 0 0 0-16h-8v-24a8 8 0 0 0 -8-8h-32a8 8 0 0 0 0 16h24v16h-32a8 8 0 0 0 -8 8v24h-8a8 8 0 0 0 -8 8v40h-16v-24a8 8 0 0 0 -8-8h-32a8 8 0 0 0 0 16h24v16h-24a8 8 0 0 0 0 16h96a8 8 0 0 0 0-16h-24v-32h16v8a8 8 0 0 0 16 0v-16a8 8 0 0 0 -8-8h-8v-16h24v16a8 8 0 0 0 16 0z"/><path d="m264 184h16a8 8 0 0 0 0-16h-16a8 8 0 0 0 0 16z"/><path d="m296 216h16a8 8 0 0 0 0-16h-16a8 8 0 0 0 0 16z"/><path d="m352 192v32a8 8 0 0 0 8 8h16a8 8 0 0 0 0-16h-8v-24h32a8 8 0 0 0 0-16h-56v-8a8 8 0 0 0 -8-8h-16v-16a8 8 0 0 0 -16 0v24a8 8 0 0 0 8 8h16v8a8 8 0 0 0 8 8z"/><path d="m288 248h40a8 8 0 0 0 0-16h-40a8 8 0 0 0 0 16z"/><path d="m464 184a8 8 0 0 0 -8-8h-24a8 8 0 0 0 0 16h16v16h-24a8 8 0 0 0 0 16h24v16h-32a8 8 0 0 0 0 16h40a8 8 0 0 0 8-8z"/><path d="m352 264h8v8a8 8 0 0 0 16 0v-16a8 8 0 0 0 -8-8h-16a8 8 0 0 0 0 16z"/><path d="m408 296v-8h16a8 8 0 0 0 0-16h-24a8 8 0 0 0 -8 8v16a8 8 0 0 0 16 0z"/><path d="m440 456v-24h16a8 8 0 0 0 0-16h-24a8 8 0 0 0 -8 8v32a8 8 0 0 0 16 0z"/><circle cx="368" cy="392" r="8"/></svg>