<svg height="512" viewBox="0 0 58 58" width="512" xmlns="http://www.w3.org/2000/svg"><g id="003---Organic-Recipies" fill="none"><path id="Shape" d="m53 8h3c1.1045695 0 2 .8954305 2 2v46c0 1.1045695-.8954305 2-2 2h-54c-1.1045695 0-2-.8954305-2-2v-46c0-1.1045695.8954305-2 2-2z" fill="#2980ba"/><path id="Shape" d="m51.34 8h2.8c.5119832.01823215.9957109.23927459 1.3445989.61442302.348888.37514842.5343067.87361821.5154011 1.38557698v46c.0189056.5119588-.1665131 1.0104286-.5154011 1.385577s-.8326157.5961908-1.3445989.614423h-50.28c-.5119832-.0182322-.99571087-.2392746-1.34459891-.614423s-.53430673-.8736182-.51540109-1.385577v-46c-.01890564-.51195877.16651305-1.01042856.51540109-1.38557698.34888804-.37514843.83261571-.59619087 1.34459891-.61442302z" fill="#3b97d3"/><path id="Shape" d="m52 0h-20c-1.6568542 0-3 1.34314575-3 3 0-1.65685425-1.3431458-3-3-3h-20c-.26521649 0-.5195704.10535684-.70710678.29289322s-.29289322.44189029-.29289322.70710678v52c0 .5522847.44771525 1 1 1h46c.5522847 0 1-.4477153 1-1v-52c0-.55228475-.4477153-1-1-1z" fill="#f5efca"/><path id="Shape" d="m53 1v49h-21c-1.6568542 0-3 1.3431458-3 3v-50c0-1.65685425 1.3431458-3 3-3h20c.5522847 0 1 .44771525 1 1z" fill="#f9eab0"/><path id="Shape" d="m48 15.23c-1.58 2.34-4.3 3.34-6.37 2.44-.1865462-.073297-.3643163-.1672132-.53-.28-.3910595-.2701225-.7298775-.6089405-1-1-.1219749-.1704773-.2290373-.3511451-.32-.54-.8108805-1.8645452-.5710297-4.0193953.63-5.66 1.27-1.9 5.21-3.29 7.18-3.89.2859631-.08498334.5949356-.03785533.8425591.1285167.2476235.16637204.4080362.43461225.4374409.7314833.18 2.05.4 6.17-.87 8.07z" fill="#24ae5f"/><path id="Shape" d="m43.79 13.94-2.44 3.06c-.3910595-.2701225-.7298775-.6089405-1-1-.1219749-.1704773-.2290373-.3511451-.32-.54l2.21-2.76c.2087685-.3078935.57119-.4744549.9408003-.4323723.3696102.0420825.6853128.2858528.8195237.6327968.134211.3469439.0647453.7397118-.180324 1.0195755z" fill="#4c8056"/><g fill="#e4c05c"><path id="Shape" d="m48 24h-14c-.5522847 0-1-.4477153-1-1s.4477153-1 1-1h14c.5522847 0 1 .4477153 1 1s-.4477153 1-1 1z"/><path id="Shape" d="m48 34h-14c-.5522847 0-1-.4477153-1-1s.4477153-1 1-1h14c.5522847 0 1 .4477153 1 1s-.4477153 1-1 1z"/><path id="Shape" d="m40 44h-6c-.5522847 0-1-.4477153-1-1s.4477153-1 1-1h6c.5522847 0 1 .4477153 1 1s-.4477153 1-1 1z"/><path id="Shape" d="m48 29h-2c-.5522847 0-1-.4477153-1-1s.4477153-1 1-1h2c.5522847 0 1 .4477153 1 1s-.4477153 1-1 1z"/><path id="Shape" d="m42 29h-8c-.5522847 0-1-.4477153-1-1s.4477153-1 1-1h8c.5522847 0 1 .4477153 1 1s-.4477153 1-1 1z"/><path id="Shape" d="m36 39h-2c-.5522847 0-1-.4477153-1-1s.4477153-1 1-1h2c.5522847 0 1 .4477153 1 1s-.4477153 1-1 1z"/><path id="Shape" d="m48 39h-8c-.5522847 0-1-.4477153-1-1s.4477153-1 1-1h8c.5522847 0 1 .4477153 1 1s-.4477153 1-1 1z"/></g><path id="Shape" d="m20 22.23v20.77c0 1.6568542-1.3431458 3-3 3s-3-1.3431458-3-3v-20.77" fill="#a56a43"/><path id="Shape" d="m29 53v1h-23c-.55228475 0-1-.4477153-1-1v-3h21c1.6568542 0 3 1.3431458 3 3z" fill="#f3d55b"/><path id="Shape" d="m53 50v3c0 .5522847-.4477153 1-1 1h-23v-1c0-1.6568542 1.3431458-3 3-3z" fill="#f0c419"/><path id="Shape" d="m24 15c0 4.42-3.13 8-7 8s-7-3.58-7-8 3.13-10 7-10 7 5.58 7 10z" fill="#cb8252"/><path id="Shape" d="m22 14.19c.1475807 2.913564-2.0871686 5.3986052-5 5.56-2.9128314-.1613948-5.1475807-2.646436-5-5.56 0-3.06 2.24-6.94 5-6.94s5 3.88 5 6.94z" fill="#cf976a"/><path id="Shape" d="m41.93 16.41c-.2701225.3910595-.6089405.7298775-1 1-.1790672.1195216-.3700981.2200642-.57.3-2.07.9-4.79-.1-6.37-2.44-1.27-1.9-1-6-.84-8 .0294047-.29687105.1898174-.56511126.4374409-.7314833.2476235-.16637203.556596-.21350004.8425591-.1285167 2 .6 5.91 2 7.18 3.89 1.3288807 1.7858408 1.455062 4.1951147.32 6.11z" fill="#4fba6f"/><path id="Shape" d="m41.93 16.41c-.2701225.3910595-.6089405.7298775-1 1-.1790672.1195216-.3700981.2200642-.57.3l-3.16-4.06c-.2965127-.4372993-.2016771-1.0298079.2165123-1.3527136.4181894-.3229058 1.0154171-.2647752 1.3634877.1327136z" fill="#4c8056"/></g></svg>